<?xml version="1.0" encoding="utf-8"?>
<!-- Generator: Adobe Illustrator 19.2.1, SVG Export Plug-In . SVG Version: 6.00 Build 0)  -->
<svg version="1.1" id="Layer_1" xmlns:sketch="http://www.bohemiancoding.com/sketch/ns"
	 xmlns="http://www.w3.org/2000/svg" xmlns:xlink="http://www.w3.org/1999/xlink" x="0px" y="0px" viewBox="0 0 90 33"
	 style="enable-background:new 0 0 90 33;" xml:space="preserve">
<style type="text/css">
	.st0{fill:#2994CC;}
</style>
<title>relayr_logo_white</title>
<desc>Created with Sketch.</desc>
<g id="Page-1" sketch:type="MSPage">
	<g id="relayr_logo_white" sketch:type="MSLayerGroup">
		<g id="Group" sketch:type="MSShapeGroup">
			<path id="Shape" d="M0.6,7.7c1.4-0.6,3.7-1,5.8-1c1.4,0,2.5,0.1,3.5,0.4l-0.5,3C8.8,10,7.8,9.8,6.6,9.8c-1.4,0-2.1,0.2-2.7,0.4
				v14.4H0.6V7.7L0.6,7.7z"/>
			<path id="Shape_1_" d="M26.5,17H15v0.1c0,3.1,1.9,4.6,5.3,4.6c2,0,4.2-0.5,5.4-1.2l0.5,3.1c-1.7,0.8-3.8,1.2-5.9,1.2
				c-5.7,0-8.6-2.8-8.6-9c0-5.1,1.9-9.2,7.7-9.2c4.8,0,7.4,2.6,7.4,7.8C26.8,15.1,26.7,16.2,26.5,17L26.5,17z M15,14.3h8.7v-0.2
				c0-3.2-1.7-4.6-4.4-4.6c-2.7,0-4.3,1.4-4.3,4.6V14.3L15,14.3z"/>
			<path id="Shape_2_" d="M30.5,0.8h3.2v18.1c0,2.2,0.6,2.8,1.7,2.8c0.5,0,1-0.1,1.4-0.3l0.5,3c-0.5,0.2-1.3,0.4-2.2,0.4
				c-2.6,0-4.6-1.4-4.6-5.3V0.8L30.5,0.8z"/>
			<path id="Shape_3_" d="M53.3,23.8c-1.7,0.6-4.4,1-6.8,1c-4.5,0-7.1-1.5-7.1-5.5c0-4,2.8-5.4,7.4-5.4h3.4v-1.5
				c0-2.1-1.5-2.8-4.1-2.8c-2.1,0-3.7,0.4-4.9,0.8l-0.5-3c1.4-0.4,3.3-0.8,5.4-0.8c4.1,0,7.2,1.5,7.2,6.1L53.3,23.8L53.3,23.8z
				 M50.1,16.5h-3.3c-2.8,0-4.2,0.8-4.2,2.8c0,2.3,1.5,2.8,3.8,2.8c1.2,0,2.7-0.1,3.7-0.4L50.1,16.5L50.1,16.5z"/>
			<path id="Shape_4_" d="M64.4,20.4L69.5,7h3.4l-6.7,17.5c-1.5,4.1-3.9,8-8.7,7.8l-0.7-3c2.4,0.1,5-1.7,6.2-4.8L55.2,7h3.4
				L64.4,20.4L64.4,20.4z"/>
			<path id="Shape_5_" d="M75.5,7.7c1.4-0.6,3.7-1,5.8-1c1.4,0,2.5,0.1,3.5,0.4l-0.5,3c-0.6-0.2-1.6-0.4-2.8-0.4
				c-1.4,0-2.1,0.2-2.7,0.4v14.4h-3.2V7.7L75.5,7.7z"/>
		</g>
		<circle id="Oval" sketch:type="MSShapeGroup" class="st0" cx="87.4" cy="22.4" r="2.5">
		</circle>
	</g>
</g>
</svg>
